<?xml version="1.0" encoding="UTF-8" standalone="no"?>
<svg
   xmlns:dc="http://purl.org/dc/elements/1.1/"
   xmlns:cc="http://creativecommons.org/ns#"
   xmlns:rdf="http://www.w3.org/1999/02/22-rdf-syntax-ns#"
   xmlns:svg="http://www.w3.org/2000/svg"
   xmlns="http://www.w3.org/2000/svg"
   xmlns:sodipodi="http://sodipodi.sourceforge.net/DTD/sodipodi-0.dtd"
   xmlns:inkscape="http://www.inkscape.org/namespaces/inkscape"
   id="svg2"
   xml:space="preserve"
   height="383"
   width="2480"
   version="1.1"
   y="0px"
   x="0px"
   viewBox="0 0 2479.9999 383.00001"
   inkscape:version="0.91 r13725"
   sodipodi:docname="dbet-white.svg"><metadata
     id="metadata27"><rdf:RDF><cc:Work
         rdf:about=""><dc:format>image/svg+xml</dc:format><dc:type
           rdf:resource="http://purl.org/dc/dcmitype/StillImage" /><dc:title></dc:title></cc:Work></rdf:RDF></metadata><defs
     id="defs25" /><sodipodi:namedview
     pagecolor="#ffffff"
     bordercolor="#666666"
     borderopacity="1"
     objecttolerance="10"
     gridtolerance="10"
     guidetolerance="10"
     inkscape:pageopacity="0"
     inkscape:pageshadow="2"
     inkscape:window-width="1920"
     inkscape:window-height="1017"
     id="namedview23"
     showgrid="false"
     inkscape:zoom="0.35277348"
     inkscape:cx="420.95001"
     inkscape:cy="297.64999"
     inkscape:window-x="0"
     inkscape:window-y="30"
     inkscape:window-maximized="1"
     inkscape:current-layer="svg2" /><style
     id="style4"
     type="text/css">
	.st0{fill:#ffffff;}
	.st1{fill:#E89500;}
</style><g
     id="Ebene_4"
     transform="matrix(4.0458018,0,0,4.0458018,-554.73286,-969.07307)"><path
       id="path9"
       class="st0"
       d="m 348.6,330.9 c -25,0 -45.4,-20.4 -45.4,-45.4 0,-25 20.4,-45.4 45.4,-45.4 12.1,0 23.5,4.7 32.1,13.3 l -7.3,7.3 c -6.6,-6.6 -15.4,-10.2 -24.7,-10.2 -19.3,0 -35,15.7 -35,35 0,19.3 15.7,35 35,35 10.2,0 19.9,-4.4 26.5,-12.2 l 7.9,6.8 c -8.8,10 -21.3,15.8 -34.5,15.8 z"
       inkscape:connector-curvature="0"
       style="fill:#ffffff" /><path
       id="path11"
       class="st1"
       d="m 348.7,309.6 c -0.7,0 -1.3,0 -2,-0.1 l 0.6,-6.9 c 1.3,0.1 2.7,0.1 4,-0.1 l 1,6.9 c -1.2,0.1 -2.4,0.2 -3.6,0.2 z m -10.1,-2.2 c -1.7,-0.8 -3.3,-1.8 -4.7,-2.9 l 4.3,-5.5 c 1,0.8 2.2,1.5 3.4,2.1 l -3,6.3 z m 21.5,-0.7 -3.3,-6.1 c 1.2,-0.6 2.3,-1.4 3.3,-2.3 l 4.6,5.2 c -1.4,1.3 -2.9,2.4 -4.6,3.2 z m -31.8,-8.3 c -1,-1.6 -1.8,-3.2 -2.4,-5 l 6.5,-2.3 c 0.4,1.3 1,2.5 1.7,3.6 l -5.8,3.7 z m 41.6,-1.3 -6.1,-3.4 c 0.6,-1.2 1.2,-2.4 1.5,-3.7 l 6.7,1.9 c -0.5,1.8 -1.2,3.6 -2.1,5.2 z m -45.5,-11.9 c 0,-1.9 0.2,-3.8 0.6,-5.6 l 6.8,1.5 c -0.3,1.3 -0.4,2.6 -0.4,4 l -7,0.1 z m 41.6,-1.1 c -0.1,-1.3 -0.3,-2.7 -0.7,-3.9 l 6.6,-1.9 c 0.5,1.8 0.8,3.6 0.9,5.5 l -6.8,0.3 z m -31.9,-8.4 -5.8,-3.7 c 1,-1.6 2.2,-3 3.5,-4.3 l 4.9,4.9 c -1.1,0.9 -1.9,2 -2.6,3.1 z m 28.6,-0.9 c -0.8,-1.1 -1.7,-2.1 -2.7,-3 l 4.6,-5.2 c 1.4,1.2 2.6,2.6 3.7,4.1 l -5.6,4.1 z m -21.2,-5.6 -2.9,-6.3 c 1.7,-0.8 3.5,-1.4 5.3,-1.7 l 1.4,6.8 c -1.4,0.2 -2.6,0.6 -3.8,1.2 z m 13.5,-0.4 c -1.2,-0.5 -2.5,-0.8 -3.8,-1 l 1,-6.9 c 1.8,0.3 3.7,0.7 5.4,1.4 l -2.6,6.5 z"
       inkscape:connector-curvature="0"
       style="fill:#e89500" /><path
       id="path13"
       class="st1"
       d="m 630.1,331.4 0,-44.7 15.6,0 c 5.4,0 9.5,1 12.3,3.1 2.8,2.1 4.2,5.1 4.2,9.1 0,2.2 -0.6,4.1 -1.7,5.8 -1.1,1.7 -2.7,2.9 -4.7,3.7 2.3,0.6 4.1,1.7 5.4,3.5 1.3,1.7 2,3.9 2,6.4 0,4.3 -1.4,7.5 -4.1,9.8 -2.7,2.2 -6.6,3.3 -11.7,3.4 l -17.3,0 z m 9.2,-26 6.8,0 c 4.6,-0.1 7,-1.9 7,-5.6 0,-2 -0.6,-3.5 -1.8,-4.4 -1.2,-0.9 -3,-1.3 -5.6,-1.3 l -6.4,0 0,11.3 z m 0,6.5 0,12.1 7.9,0 c 2.2,0 3.9,-0.5 5.1,-1.5 1.2,-1 1.8,-2.5 1.8,-4.3 0,-4.1 -2.1,-6.2 -6.3,-6.2 l -8.5,0 z"
       inkscape:connector-curvature="0"
       style="fill:#e89500" /><path
       id="path15"
       class="st1"
       d="m 696.5,312 -17.7,0 0,12 20.7,0 0,7.4 -29.9,0 0,-44.7 29.9,0 0,7.5 -20.7,0 0,10.6 17.7,0 0,7.2 z"
       inkscape:connector-curvature="0"
       style="fill:#e89500" /><path
       id="path17"
       class="st1"
       d="m 742,294.2 -13.7,0 0,37.2 -9.2,0 0,-37.2 -13.5,0 0,-7.5 36.4,0 0,7.5 z"
       inkscape:connector-curvature="0"
       style="fill:#e89500" /><circle
       id="circle19"
       cy="325.39999"
       cx="611.5"
       r="6.4000001"
       class="st1"
       style="fill:#e89500" /><rect
       id="rect21"
       class="st0"
       height="10.4"
       width="64"
       y="243.3"
       x="554.79999"
       style="fill:#ffffff" /><rect
       id="rect23"
       class="st0"
       height="84.800003"
       width="10.4"
       y="246.7"
       x="581.70001"
       style="fill:#ffffff" /><path
       id="path25"
       class="st0"
       d="m 172.9,329.8 -25.9,0 0,-86.8 25.9,0 c 23.9,0 43.4,19.5 43.4,43.4 0,23.9 -19.4,43.4 -43.4,43.4 z m -15.4,-10.4 15.5,0 c 18.2,0 33,-14.8 33,-33 0,-18.2 -14.8,-33 -33,-33 l -15.5,0 0,66 z"
       inkscape:connector-curvature="0"
       style="fill:#ffffff" /><rect
       id="rect27"
       class="st0"
       height="10.4"
       width="62.299999"
       y="243.3"
       x="228.10001"
       style="fill:#ffffff" /><rect
       id="rect29"
       class="st0"
       height="10.4"
       width="62.299999"
       y="280.79999"
       x="228.10001"
       style="fill:#ffffff" /><rect
       id="rect31"
       class="st0"
       height="10.4"
       width="62.299999"
       y="319.39999"
       x="228.10001"
       style="fill:#ffffff" /><rect
       id="rect33"
       class="st0"
       height="10.4"
       width="62.299999"
       y="243.3"
       x="394.29999"
       style="fill:#ffffff" /><rect
       id="rect35"
       class="st0"
       height="10.4"
       width="62.299999"
       y="280.79999"
       x="394.29999"
       style="fill:#ffffff" /><rect
       id="rect37"
       class="st0"
       height="10.4"
       width="62.299999"
       y="319.39999"
       x="394.29999"
       style="fill:#ffffff" /><rect
       id="rect39"
       transform="matrix(0.8068,-0.5909,0.5909,0.8068,-71.32,354.98)"
       height="101.6"
       width="10.4"
       y="235.8"
       x="501.89999"
       class="st0"
       style="fill:#ffffff" /><rect
       id="rect41"
       class="st0"
       height="89.400002"
       width="10.4"
       y="242.10001"
       x="470.20001"
       style="fill:#ffffff" /><rect
       id="rect43"
       class="st0"
       height="89.400002"
       width="10.4"
       y="242.10001"
       x="533"
       style="fill:#ffffff" /></g></svg>